# xmcd
#
# Track frame offsets:
#	150
#	15631
#	30371
#	40964
#	52120
#	62703
#	76967
#	96458
#	107947
#	121465
#	134277
#	146332
#	157849
#	169006
#	180677
#	191582
#	203692
#	218305
#	229016
#	240223
#
# Disc length: 3367 seconds
#
# Revision: 0
# Processed by: cddbd v1.5.1PL0 Copyright (c) Steve Scherf et al.
# Submitted via: dBpowerAMP V4.0
#
DISCID=040d2514
DTITLE=Stonewall Jackson - The Mighty Stonwall Jackson Sings Modern Hits and Original Favorites
DYEAR=1900
DGENRE=Country
TTITLE0=My Favorite Sin
TTITLE1=We're The Kind Of People That Make The Jukebox Play
TTITLE2=I Can't Sing A Love Song
TTITLE3=Jesus Took The Outlaw Out Of Me
TTITLE4=Come On Home And Have Your Next Affair With Me
TTITLE5=The Pint Of No Return
TTITLE6=Things That Lovers Do
TTITLE7=Don't You Say Nothing At All
TTITLE8=Spirits Of St' Louis
TTITLE9=Alcohol Of Fame
TTITLE10=Sunny Side Of The Moutain
TTITLE11=Here's To The Ripoff
TTITLE12=Listening To Johnny Paycheck
TTITLE13=The Long Black Veil
TTITLE14=Angry Words
TTITLE15=Leona
TTITLE16=Old Showboat
TTITLE17=Waterloo
TTITLE18=Mary Don't You Weep
TTITLE19=B.J. The D.J.
EXTD=
EXTT0=
EXTT1=
EXTT2=
EXTT3=
EXTT4=
EXTT5=
EXTT6=
EXTT7=
EXTT8=
EXTT9=
EXTT10=
EXTT11=
EXTT12=
EXTT13=
EXTT14=
EXTT15=
EXTT16=
EXTT17=
EXTT18=
EXTT19=
PLAYORDER=
